dataset
version=1
nRows=33
nColumns=39
inDegrees=no
endheader
time	sternoclavicular_r2	sternoclavicular_r3	unrotscap_r3	unrotscap_r2	acromioclavicular_r2	acromioclavicular_r3	acromioclavicular_r1	unrothum_r1	unrothum_r3	unrothum_r2	elv_angle	shoulder_elv	shoulder1_r2	shoulder_rot	elbow_flexion	pro_sup	deviation	flexion	cmc_abduction	cmc_flexion	mp_flexion	ip_flexion	mcp2_flexion	mcp2_abduction	pm2_flexion	md2_flexion	mcp3_flexion	mcp3_abduction	pm3_flexion	md3_flexion	mcp4_flexion	mcp4_abduction	pm4_flexion	md4_flexion	mcp5_flexion	mcp5_abduction	pm5_flexion	md5_flexion
0.000000	-0.021295	-0.387628	0.250037	-0.025407	-0.061738	0.179996	-0.163934	-0.075288	-0.150377	0.005912	-0.073448	0.027437	0.146525	0.146525	1.615071	0.940270	0.000000	0.000000	0.000000	0.000000	0.000000	0.000000	0.000000	0.000000	0.000000	0.000000	0.000000	0.000000	0.000000	0.000000	0.000000	0.000000	0.000000	0.000000	0.000000	0.000000	0.000000	0.000000
0.005000	-0.021297	-0.387637	0.250131	-0.025413	-0.061758	0.180074	-0.163988	-0.075172	-0.150596	0.005888	-0.073521	0.027437	0.146525	0.146525	1.615436	0.948108	0.000000	0.000000	0.000000	0.000000	0.000000	0.000000	0.000000	0.000000	0.000000	0.000000	0.000000	0.000000	0.000000	0.000000	0.000000	0.000000	0.000000	0.000000	0.000000	0.000000	0.000000	0.000000
0.010000	-0.021295	-0.387634	0.250177	-0.025436	-0.061787	0.180109	-0.164017	-0.075109	-0.150735	0.005859	-0.073582	0.027437	0.146525	0.146525	1.615792	0.955777	0.000000	0.000000	0.000000	0.000000	0.000000	0.000000	0.000000	0.000000	0.000000	0.000000	0.000000	0.000000	0.000000	0.000000	0.000000	0.000000	0.000000	0.000000	0.000000	0.000000	0.000000	0.000000
0.015000	-0.021291	-0.387626	0.250195	-0.025467	-0.061821	0.180120	-0.164031	-0.075076	-0.150827	0.005828	-0.073634	0.027437	0.146525	0.146525	1.616141	0.963280	0.000000	0.000000	0.000000	0.000000	0.000000	0.000000	0.000000	0.000000	0.000000	0.000000	0.000000	0.000000	0.000000	0.000000	0.000000	0.000000	0.000000	0.000000	0.000000	0.000000	0.000000	0.000000
0.020000	-0.021285	-0.387613	0.250196	-0.025503	-0.061857	0.180116	-0.164036	-0.075062	-0.150891	0.005795	-0.073682	0.027437	0.146525	0.146525	1.616483	0.970619	0.000000	0.000000	0.000000	0.000000	0.000000	0.000000	0.000000	0.000000	0.000000	0.000000	0.000000	0.000000	0.000000	0.000000	0.000000	0.000000	0.000000	0.000000	0.000000	0.000000	0.000000	0.000000
0.025000	-0.021278	-0.387599	0.250187	-0.025542	-0.061894	0.180104	-0.164037	-0.075058	-0.150938	0.005763	-0.073727	0.027437	0.146525	0.146525	1.616817	0.977799	0.000000	0.000000	0.000000	0.000000	0.000000	0.000000	0.000000	0.000000	0.000000	0.000000	0.000000	0.000000	0.000000	0.000000	0.000000	0.000000	0.000000	0.000000	0.000000	0.000000	0.000000	0.000000
0.030000	-0.021271	-0.387583	0.250173	-0.025581	-0.061931	0.180087	-0.164034	-0.075061	-0.150976	0.005730	-0.073768	0.027437	0.146525	0.146525	1.617146	0.984821	0.000000	0.000000	0.000000	0.000000	0.000000	0.000000	0.000000	0.000000	0.000000	0.000000	0.000000	0.000000	0.000000	0.000000	0.000000	0.000000	0.000000	0.000000	0.000000	0.000000	0.000000	0.000000
0.035000	-0.021264	-0.387567	0.250156	-0.025621	-0.061968	0.180067	-0.164030	-0.075066	-0.151007	0.005699	-0.073808	0.027437	0.146525	0.146525	1.617469	0.991689	0.000000	0.000000	0.000000	0.000000	0.000000	0.000000	0.000000	0.000000	0.000000	0.000000	0.000000	0.000000	0.000000	0.000000	0.000000	0.000000	0.000000	0.000000	0.000000	0.000000	0.000000	0.000000
0.040000	-0.021257	-0.387551	0.250136	-0.025660	-0.062004	0.180045	-0.164024	-0.075074	-0.151035	0.005668	-0.073847	0.027437	0.146525	0.146525	1.617786	0.998407	0.000000	0.000000	0.000000	0.000000	0.000000	0.000000	0.000000	0.000000	0.000000	0.000000	0.000000	0.000000	0.000000	0.000000	0.000000	0.000000	0.000000	0.000000	0.000000	0.000000	0.000000	0.000000
0.045000	-0.021250	-0.387535	0.250116	-0.025698	-0.062039	0.180022	-0.164019	-0.075082	-0.151061	0.005637	-0.073883	0.027437	0.146525	0.146525	1.618098	1.004977	0.000000	0.000000	0.000000	0.000000	0.000000	0.000000	0.000000	0.000000	0.000000	0.000000	0.000000	0.000000	0.000000	0.000000	0.000000	0.000000	0.000000	0.000000	0.000000	0.000000	0.000000	0.000000
0.050000	-0.021243	-0.387519	0.250095	-0.025736	-0.062073	0.180000	-0.164012	-0.075091	-0.151085	0.005608	-0.073919	0.027437	0.146525	0.146525	1.618405	1.011401	0.000000	0.000000	0.000000	0.000000	0.000000	0.000000	0.000000	0.000000	0.000000	0.000000	0.000000	0.000000	0.000000	0.000000	0.000000	0.000000	0.000000	0.000000	0.000000	0.000000	0.000000	0.000000
0.055000	-0.021236	-0.387504	0.250075	-0.025773	-0.062107	0.179977	-0.164006	-0.075100	-0.151108	0.005580	-0.073954	0.027437	0.146525	0.146525	1.618707	1.017684	0.000000	0.000000	0.000000	0.000000	0.000000	0.000000	0.000000	0.000000	0.000000	0.000000	0.000000	0.000000	0.000000	0.000000	0.000000	0.000000	0.000000	0.000000	0.000000	0.000000	0.000000	0.000000
0.060000	-0.021229	-0.387489	0.250054	-0.025809	-0.062139	0.179954	-0.163999	-0.075109	-0.151130	0.005552	-0.073987	0.027437	0.146525	0.146525	1.619005	1.023828	0.000000	0.000000	0.000000	0.000000	0.000000	0.000000	0.000000	0.000000	0.000000	0.000000	0.000000	0.000000	0.000000	0.000000	0.000000	0.000000	0.000000	0.000000	0.000000	0.000000	0.000000	0.000000
0.065000	-0.021223	-0.387475	0.250034	-0.025844	-0.062171	0.179933	-0.163993	-0.075117	-0.151151	0.005525	-0.074020	0.027437	0.146525	0.146525	1.619299	1.029836	0.000000	0.000000	0.000000	0.000000	0.000000	0.000000	0.000000	0.000000	0.000000	0.000000	0.000000	0.000000	0.000000	0.000000	0.000000	0.000000	0.000000	0.000000	0.000000	0.000000	0.000000	0.000000
0.070000	-0.021217	-0.387461	0.250014	-0.025878	-0.062201	0.179911	-0.163986	-0.075125	-0.151172	0.005499	-0.074051	0.027437	0.146525	0.146525	1.619589	1.035710	0.000000	0.000000	0.000000	0.000000	0.000000	0.000000	0.000000	0.000000	0.000000	0.000000	0.000000	0.000000	0.000000	0.000000	0.000000	0.000000	0.000000	0.000000	0.000000	0.000000	0.000000	0.000000
0.075000	-0.021211	-0.387449	0.249994	-0.025910	-0.062231	0.179891	-0.163980	-0.075132	-0.151193	0.005474	-0.074082	0.027437	0.146525	0.146525	1.619876	1.041453	0.000000	0.000000	0.000000	0.000000	0.000000	0.000000	0.000000	0.000000	0.000000	0.000000	0.000000	0.000000	0.000000	0.000000	0.000000	0.000000	0.000000	0.000000	0.000000	0.000000	0.000000	0.000000
0.080000	-0.021205	-0.387437	0.249976	-0.025942	-0.062260	0.179871	-0.163973	-0.075138	-0.151213	0.005449	-0.074112	0.027437	0.146525	0.146525	1.620160	1.047069	0.000000	0.000000	0.000000	0.000000	0.000000	0.000000	0.000000	0.000000	0.000000	0.000000	0.000000	0.000000	0.000000	0.000000	0.000000	0.000000	0.000000	0.000000	0.000000	0.000000	0.000000	0.000000
0.085000	-0.021200	-0.387426	0.249958	-0.025973	-0.062288	0.179853	-0.163967	-0.075144	-0.151233	0.005426	-0.074141	0.027437	0.146525	0.146525	1.620441	1.052559	0.000000	0.000000	0.000000	0.000000	0.000000	0.000000	0.000000	0.000000	0.000000	0.000000	0.000000	0.000000	0.000000	0.000000	0.000000	0.000000	0.000000	0.000000	0.000000	0.000000	0.000000	0.000000
0.090000	-0.021194	-0.387416	0.249941	-0.026002	-0.062315	0.179836	-0.163960	-0.075148	-0.151253	0.005402	-0.074169	0.027437	0.146525	0.146525	1.620719	1.057926	0.000000	0.000000	0.000000	0.000000	0.000000	0.000000	0.000000	0.000000	0.000000	0.000000	0.000000	0.000000	0.000000	0.000000	0.000000	0.000000	0.000000	0.000000	0.000000	0.000000	0.000000	0.000000
0.095000	-0.021189	-0.387407	0.249926	-0.026031	-0.062341	0.179820	-0.163954	-0.075152	-0.151273	0.005380	-0.074197	0.027437	0.146525	0.146525	1.620996	1.063173	0.000000	0.000000	0.000000	0.000000	0.000000	0.000000	0.000000	0.000000	0.000000	0.000000	0.000000	0.000000	0.000000	0.000000	0.000000	0.000000	0.000000	0.000000	0.000000	0.000000	0.000000	0.000000
0.100000	-0.021185	-0.387399	0.249911	-0.026058	-0.062366	0.179805	-0.163948	-0.075154	-0.151292	0.005358	-0.074223	0.027437	0.146525	0.146525	1.621271	1.068302	0.000000	0.000000	0.000000	0.000000	0.000000	0.000000	0.000000	0.000000	0.000000	0.000000	0.000000	0.000000	0.000000	0.000000	0.000000	0.000000	0.000000	0.000000	0.000000	0.000000	0.000000	0.000000
0.105000	-0.021180	-0.387392	0.249897	-0.026084	-0.062390	0.179792	-0.163941	-0.075156	-0.151311	0.005337	-0.074249	0.027437	0.146525	0.146525	1.621544	1.073317	0.000000	0.000000	0.000000	0.000000	0.000000	0.000000	0.000000	0.000000	0.000000	0.000000	0.000000	0.000000	0.000000	0.000000	0.000000	0.000000	0.000000	0.000000	0.000000	0.000000	0.000000	0.000000
0.110000	-0.021176	-0.387387	0.249885	-0.026109	-0.062414	0.179781	-0.163935	-0.075156	-0.151330	0.005316	-0.074274	0.027437	0.146525	0.146525	1.621815	1.078218	0.000000	0.000000	0.000000	0.000000	0.000000	0.000000	0.000000	0.000000	0.000000	0.000000	0.000000	0.000000	0.000000	0.000000	0.000000	0.000000	0.000000	0.000000	0.000000	0.000000	0.000000	0.000000
0.115000	-0.021172	-0.387383	0.249874	-0.026133	-0.062436	0.179771	-0.163929	-0.075155	-0.151349	0.005296	-0.074298	0.027437	0.146525	0.146525	1.622086	1.083010	0.000000	0.000000	0.000000	0.000000	0.000000	0.000000	0.000000	0.000000	0.000000	0.000000	0.000000	0.000000	0.000000	0.000000	0.000000	0.000000	0.000000	0.000000	0.000000	0.000000	0.000000	0.000000
0.120000	-0.021169	-0.387380	0.249864	-0.026155	-0.062458	0.179763	-0.163922	-0.075153	-0.151367	0.005276	-0.074321	0.027437	0.146525	0.146525	1.622356	1.087693	0.000000	0.000000	0.000000	0.000000	0.000000	0.000000	0.000000	0.000000	0.000000	0.000000	0.000000	0.000000	0.000000	0.000000	0.000000	0.000000	0.000000	0.000000	0.000000	0.000000	0.000000	0.000000
0.125000	-0.021166	-0.387379	0.249855	-0.026176	-0.062479	0.179757	-0.163916	-0.075149	-0.151386	0.005257	-0.074344	0.027437	0.146525	0.146525	1.622625	1.092270	0.000000	0.000000	0.000000	0.000000	0.000000	0.000000	0.000000	0.000000	0.000000	0.000000	0.000000	0.000000	0.000000	0.000000	0.000000	0.000000	0.000000	0.000000	0.000000	0.000000	0.000000	0.000000
0.130000	-0.021163	-0.387379	0.249849	-0.026196	-0.062499	0.179753	-0.163910	-0.075144	-0.151404	0.005238	-0.074366	0.027437	0.146525	0.146525	1.622894	1.096744	0.000000	0.000000	0.000000	0.000000	0.000000	0.000000	0.000000	0.000000	0.000000	0.000000	0.000000	0.000000	0.000000	0.000000	0.000000	0.000000	0.000000	0.000000	0.000000	0.000000	0.000000	0.000000
0.135000	-0.021160	-0.387381	0.249843	-0.026215	-0.062518	0.179751	-0.163904	-0.075137	-0.151422	0.005220	-0.074387	0.027437	0.146525	0.146525	1.623162	1.101117	0.000000	0.000000	0.000000	0.000000	0.000000	0.000000	0.000000	0.000000	0.000000	0.000000	0.000000	0.000000	0.000000	0.000000	0.000000	0.000000	0.000000	0.000000	0.000000	0.000000	0.000000	0.000000
0.140000	-0.021158	-0.387384	0.249840	-0.026232	-0.062535	0.179752	-0.163897	-0.075129	-0.151440	0.005203	-0.074408	0.027437	0.146525	0.146525	1.623431	1.105391	0.000000	0.000000	0.000000	0.000000	0.000000	0.000000	0.000000	0.000000	0.000000	0.000000	0.000000	0.000000	0.000000	0.000000	0.000000	0.000000	0.000000	0.000000	0.000000	0.000000	0.000000	0.000000
0.145000	-0.021156	-0.387389	0.249838	-0.026248	-0.062552	0.179755	-0.163891	-0.075119	-0.151458	0.005186	-0.074427	0.027437	0.146525	0.146525	1.623700	1.109568	0.000000	0.000000	0.000000	0.000000	0.000000	0.000000	0.000000	0.000000	0.000000	0.000000	0.000000	0.000000	0.000000	0.000000	0.000000	0.000000	0.000000	0.000000	0.000000	0.000000	0.000000	0.000000
0.150000	-0.021155	-0.387396	0.249838	-0.026262	-0.062568	0.179760	-0.163885	-0.075108	-0.151476	0.005169	-0.074446	0.027437	0.146525	0.146525	1.623968	1.113650	0.000000	0.000000	0.000000	0.000000	0.000000	0.000000	0.000000	0.000000	0.000000	0.000000	0.000000	0.000000	0.000000	0.000000	0.000000	0.000000	0.000000	0.000000	0.000000	0.000000	0.000000	0.000000
0.155000	-0.021154	-0.387404	0.249839	-0.026275	-0.062584	0.179767	-0.163878	-0.075094	-0.151493	0.005153	-0.074464	0.027437	0.146525	0.146525	1.624238	1.117640	0.000000	0.000000	0.000000	0.000000	0.000000	0.000000	0.000000	0.000000	0.000000	0.000000	0.000000	0.000000	0.000000	0.000000	0.000000	0.000000	0.000000	0.000000	0.000000	0.000000	0.000000	0.000000
0.160000	-0.021153	-0.387414	0.249843	-0.026287	-0.062598	0.179777	-0.163871	-0.075079	-0.151511	0.005138	-0.074481	0.027437	0.146525	0.146525	1.624507	1.121538	0.000000	0.000000	0.000000	0.000000	0.000000	0.000000	0.000000	0.000000	0.000000	0.000000	0.000000	0.000000	0.000000	0.000000	0.000000	0.000000	0.000000	0.000000	0.000000	0.000000	0.000000	0.000000
